<mxfile host="app.diagrams.net" modified="2023-07-11T06:49:56.042Z" agent="Mozilla/5.0 (Windows NT 10.0; Win64; x64) AppleWebKit/537.36 (KHTML, like Gecko) Chrome/114.0.0.0 Safari/537.36" etag="8fymgTnD2flK1qLMF7rF" version="21.6.1" type="github">
  <diagram name="第 1 页" id="n1kHVQZ1q88pi1r-fSgN">
    <mxGraphModel dx="2261" dy="764" grid="1" gridSize="10" guides="1" tooltips="1" connect="1" arrows="1" fold="1" page="1" pageScale="1" pageWidth="827" pageHeight="1169" math="0" shadow="0">
      <root>
        <mxCell id="0" />
        <mxCell id="1" parent="0" />
        <mxCell id="bpdRfm3bWkFXbnOVartd-1" value="" style="rounded=0;whiteSpace=wrap;html=1;" vertex="1" parent="1">
          <mxGeometry x="110" y="170" width="540" height="420" as="geometry" />
        </mxCell>
        <mxCell id="bpdRfm3bWkFXbnOVartd-2" value="TMS系统" style="rounded=0;whiteSpace=wrap;html=1;" vertex="1" parent="1">
          <mxGeometry x="707" y="170" width="120" height="60" as="geometry" />
        </mxCell>
        <mxCell id="bpdRfm3bWkFXbnOVartd-3" value="基础数据中台系统" style="rounded=0;whiteSpace=wrap;html=1;" vertex="1" parent="1">
          <mxGeometry x="707" y="300" width="120" height="60" as="geometry" />
        </mxCell>
        <mxCell id="bpdRfm3bWkFXbnOVartd-4" value="F3系统" style="rounded=0;whiteSpace=wrap;html=1;" vertex="1" parent="1">
          <mxGeometry x="707" y="420" width="120" height="60" as="geometry" />
        </mxCell>
        <mxCell id="bpdRfm3bWkFXbnOVartd-5" value="抖音开发者平台" style="rounded=0;whiteSpace=wrap;html=1;" vertex="1" parent="1">
          <mxGeometry x="707" y="535" width="120" height="60" as="geometry" />
        </mxCell>
        <mxCell id="bpdRfm3bWkFXbnOVartd-6" value="抖音小程序商城" style="rounded=0;whiteSpace=wrap;html=1;" vertex="1" parent="1">
          <mxGeometry x="-160" y="290" width="130" height="60" as="geometry" />
        </mxCell>
        <mxCell id="bpdRfm3bWkFXbnOVartd-7" value="商城运营WEB" style="rounded=0;whiteSpace=wrap;html=1;" vertex="1" parent="1">
          <mxGeometry x="-160" y="170" width="130" height="60" as="geometry" />
        </mxCell>
        <mxCell id="bpdRfm3bWkFXbnOVartd-8" value="拣货APP" style="rounded=0;whiteSpace=wrap;html=1;" vertex="1" parent="1">
          <mxGeometry x="-160" y="410" width="130" height="60" as="geometry" />
        </mxCell>
        <mxCell id="bpdRfm3bWkFXbnOVartd-9" value="配送APP" style="rounded=0;whiteSpace=wrap;html=1;" vertex="1" parent="1">
          <mxGeometry x="-160" y="525" width="130" height="60" as="geometry" />
        </mxCell>
        <mxCell id="bpdRfm3bWkFXbnOVartd-12" value="网关" style="rounded=0;whiteSpace=wrap;html=1;" vertex="1" parent="1">
          <mxGeometry x="10" y="160" width="50" height="130" as="geometry" />
        </mxCell>
        <mxCell id="bpdRfm3bWkFXbnOVartd-13" value="网关" style="rounded=0;whiteSpace=wrap;html=1;" vertex="1" parent="1">
          <mxGeometry x="10" y="320" width="50" height="120" as="geometry" />
        </mxCell>
        <mxCell id="bpdRfm3bWkFXbnOVartd-14" value="网关" style="rounded=0;whiteSpace=wrap;html=1;fontStyle=1" vertex="1" parent="1">
          <mxGeometry x="10" y="460" width="50" height="140" as="geometry" />
        </mxCell>
        <mxCell id="bpdRfm3bWkFXbnOVartd-15" value="履约" style="rounded=0;whiteSpace=wrap;html=1;" vertex="1" parent="1">
          <mxGeometry x="180" y="390" width="120" height="60" as="geometry" />
        </mxCell>
        <mxCell id="bpdRfm3bWkFXbnOVartd-16" value="配送" style="rounded=0;whiteSpace=wrap;html=1;" vertex="1" parent="1">
          <mxGeometry x="470" y="400" width="120" height="60" as="geometry" />
        </mxCell>
        <mxCell id="bpdRfm3bWkFXbnOVartd-17" value="直播" style="rounded=0;whiteSpace=wrap;html=1;" vertex="1" parent="1">
          <mxGeometry x="180" y="500" width="120" height="60" as="geometry" />
        </mxCell>
        <mxCell id="bpdRfm3bWkFXbnOVartd-18" value="物流" style="rounded=0;whiteSpace=wrap;html=1;" vertex="1" parent="1">
          <mxGeometry x="470" y="500" width="120" height="60" as="geometry" />
        </mxCell>
        <mxCell id="bpdRfm3bWkFXbnOVartd-21" value="订单" style="rounded=0;whiteSpace=wrap;html=1;" vertex="1" parent="1">
          <mxGeometry x="180" y="290" width="120" height="60" as="geometry" />
        </mxCell>
        <mxCell id="bpdRfm3bWkFXbnOVartd-22" value="营销" style="rounded=0;whiteSpace=wrap;html=1;" vertex="1" parent="1">
          <mxGeometry x="470" y="290" width="120" height="60" as="geometry" />
        </mxCell>
        <mxCell id="bpdRfm3bWkFXbnOVartd-24" value="商城中台" style="text;html=1;strokeColor=none;fillColor=none;align=center;verticalAlign=middle;whiteSpace=wrap;rounded=0;" vertex="1" parent="1">
          <mxGeometry x="320" y="200" width="150" height="30" as="geometry" />
        </mxCell>
      </root>
    </mxGraphModel>
  </diagram>
</mxfile>
